<?xml version="1.0" encoding="utf-8"?>
<!-- Generator: Adobe Illustrator 27.1.1, SVG Export Plug-In . SVG Version: 6.00 Build 0)  -->
<svg version="1.1" id="Layer_1" xmlns="http://www.w3.org/2000/svg" xmlns:xlink="http://www.w3.org/1999/xlink" x="0px" y="0px"
	 viewBox="0 0 28.35 28.35" style="enable-background:new 0 0 28.35 28.35;" xml:space="preserve">
<style type="text/css">
	.st0{fill:#61615E;}
	.st1{fill:#FFFFFF;}
	.st2{fill:#00B894;}
</style>
<path fill="#737395"  d="M23.44,13.74c-0.08-0.02-0.56-0.24-0.25-1.17h-0.01c0.78-0.81,1.37-2.12,1.37-3.41c0-1.98-1.3-3.02-2.8-3.02
	s-2.8,1.04-2.8,3.02c0,1.29,0.59,2.61,1.37,3.42c0.11,0.3,0.11,0.54,0.05,0.71c0.81,0.69,1.98,2.13,1.57,4.86
	c-0.39-1.24-0.98-2.37-1.71-3.22c-0.72-0.98-2.42-1.86-3.98-2.38c-0.09-0.03-0.68-0.3-0.31-1.44h-0.01c0.96-1,1.69-2.62,1.69-4.2
	c0-2.44-1.6-3.72-3.46-3.72c-1.86,0-3.45,1.28-3.45,3.72c0,1.6,0.73,3.22,1.69,4.22c0.38,1-0.29,1.38-0.44,1.43
	c-1.01,0.37-2.1,0.9-2.92,1.5c-0.05,0.03-0.08,0.07-0.13,0.1c-0.2,0.15-0.37,0.31-0.53,0.47c-0.09,0.09-0.18,0.18-0.26,0.28v0
	c-0.75,0.85-1.34,2-1.74,3.26C6,15.43,7.16,14,7.97,13.3c-0.06-0.17-0.06-0.41,0.05-0.72c0.78-0.81,1.37-2.13,1.37-3.42
	c0-1.98-1.29-3.02-2.8-3.02S3.8,7.19,3.8,9.17c0,1.29,0.59,2.6,1.37,3.41H5.16c0.3,0.93-0.18,1.14-0.25,1.17
	c-1.65,0.56-3.26,1.64-3.52,2.68c-0.42,1.71-0.19,1.88,0,2.57c0.37,1.37,4.73,5.8,12.78,5.8s12.26-4.48,12.78-5.8
	c0.32-0.81,0.44-1.28,0-2.57C26.61,15.41,25.1,14.3,23.44,13.74z"/>
<path fill="#ffffff"  d="M16.73,15.49l-3.35-0.69c0,0-1.99,4.19-2.02,4.32c-0.03,0.13,0.54,3.13,0.54,3.13l2.06,1.23l2.2-0.66
	c0,0,0.85-2.72,0.95-2.81C17.2,19.92,16.73,15.49,16.73,15.49z"/>
<path fill="#00B894"  d="M14.17,13.46c-3.13,0-5.67,2.54-5.67,5.67s2.54,5.67,5.67,5.67s5.67-2.54,5.67-5.67S17.3,13.46,14.17,13.46z
	 M15.35,22.24c-0.29,0.11-0.52,0.2-0.7,0.26c-0.17,0.06-0.37,0.09-0.61,0.09c-0.35,0-0.63-0.09-0.82-0.26
	c-0.19-0.17-0.29-0.39-0.29-0.66c0-0.1,0.01-0.21,0.02-0.31c0.01-0.11,0.04-0.23,0.07-0.37l0.37-1.29c0.03-0.12,0.06-0.24,0.08-0.35
	c0.02-0.11,0.03-0.21,0.03-0.3c0-0.16-0.03-0.28-0.1-0.34c-0.07-0.07-0.2-0.1-0.39-0.1c-0.09,0-0.19,0.01-0.29,0.04
	c-0.1,0.03-0.18,0.06-0.25,0.08l0.1-0.4c0.24-0.1,0.47-0.18,0.69-0.25c0.22-0.07,0.43-0.1,0.62-0.1c0.35,0,0.62,0.09,0.81,0.25
	c0.19,0.17,0.28,0.39,0.28,0.66c0,0.06-0.01,0.16-0.02,0.3c-0.01,0.14-0.04,0.27-0.07,0.39l-0.36,1.29
	c-0.03,0.1-0.06,0.22-0.08,0.35c-0.02,0.13-0.03,0.23-0.03,0.3c0,0.17,0.04,0.29,0.11,0.35c0.07,0.06,0.21,0.09,0.4,0.09
	c0.09,0,0.19-0.01,0.3-0.04c0.11-0.03,0.19-0.06,0.24-0.08L15.35,22.24z M15.29,17.02c-0.17,0.16-0.37,0.24-0.61,0.24
	c-0.24,0-0.44-0.08-0.61-0.24c-0.17-0.16-0.25-0.35-0.25-0.57s0.09-0.42,0.25-0.58c0.17-0.16,0.38-0.24,0.61-0.24
	c0.24,0,0.44,0.08,0.61,0.24c0.17,0.16,0.25,0.35,0.25,0.58S15.46,16.86,15.29,17.02z"/>
</svg>
