<svg version="1.0" xmlns="http://www.w3.org/2000/svg"
	width="30.350000pt" height="30.350000pt" viewBox="0 0 30.35 30.35"
	preserveAspectRatio="xMidYMid meet">
	<g>
		<path fill="#737395" d="M4.51 1.6c-1.65 0-2.99 1.34-2.99 2.99v19.95c0 1.65 1.34 2.99 2.99 2.99h14.65l-1-1H5.51c-0.55 0-1-0.45-1-1v-9.98c0-0.55 0.45-1 1-1h17.96c0.55 0 1 0.45 1 1v4.77c0.11 0.07 1.96 2.03 1.96 2.03c0.24 0.24 0.42 0.53 0.56 0.81c0.3-0.47 0.47-1.02 0.47-1.62V7.58c0-0.83-0.04-1.29-2.37-3.62S22.3 1.6 21.47 1.6H4.51z M7.5 2.59h12.97c0.55 0 1 0.45 1 1v6.98c0 0.55-0.45 1-1 1H7.5c-0.55 0-1-0.45-1-1V3.59C6.51 3.04 6.95 2.59 7.5 2.59z M16.48 3.59v6.98h2.99V3.59H16.48z"/>
		<path fill="#00B894" d="M14.02 15.59c-0.03 0.01-0.06 0.02-0.09 0.03c-0.14 0.03-0.26 0.11-0.33 0.23c-0.07 0.12-0.09 0.26-0.05 0.4 l1.15 3.9c0.02 0.16 0.13 0.3 0.28 0.37l4.33 4.36l0.62-0.65l2.81-2.81l-4.27-4.3c-0.05-0.18-0.21-0.32-0.41-0.34l-3.9-1.15 C14.13 15.61 14.07 15.59 14.02 15.59z"/>
		<polygon fill="#FFFFFF" points="15.39,17 17.61,17.65 16.89,18.93 15.58,19.68 14.92,17.46"/>
		<polygon fill="#00B894" points="23.31,21.92 19.85,25.38 20.6,26.16 24.03,22.73"/>
		<path fill="#00B894" d="M24.49 23.26l-3.3 3.3l0.53 0.5c0.46 0.45 1.17 0.46 1.62 0l1.65-1.65c0.45-0.46 0.45-1.2 0-1.65L24.49 23.26z"/>
	</g>
</svg>
