<?xml version="1.0" encoding="utf-8"?>
<!-- Generator: Adobe Illustrator 27.1.1, SVG Export Plug-In . SVG Version: 6.00 Build 0)  -->
<svg version="1.1" id="Layer_1" xmlns="http://www.w3.org/2000/svg" xmlns:xlink="http://www.w3.org/1999/xlink" x="0px" y="0px"
	 viewBox="0 0 28.35 28.35" style="enable-background:new 0 0 28.35 28.35;" xml:space="preserve">
<style type="text/css">
	.st0{fill:#737395;}
	.st1{fill:#00B894;}
</style>
<path fill="#737395" class="st0" d="M3.42,3.81C2.9,3.81,2.36,4,1.98,4.38S1.42,5.29,1.42,5.82v16.02c0,0.52,0.18,1.06,0.56,1.44
	s0.92,0.56,1.44,0.56h22.02c0.52,0,1.06-0.18,1.44-0.56c0.38-0.38,0.56-0.92,0.56-1.44V7.82c0-0.52-0.18-1.06-0.56-1.44
	C26.5,6,25.97,5.82,25.45,5.82H15.43c0-0.52-0.18-1.06-0.56-1.44C14.49,4,13.96,3.81,13.43,3.81H3.42z M3.42,5.82h10.01v2h12.01
	v14.01h-2v-1h-4v1H9.43v-1h-4v1h-2V5.82z M9.12,8.82c-0.51,0.01-1.1,0.26-1.5,0.91c-0.3,0.6-0.49,1.49-0.19,2.19
	c0,0.1-0.09,0.01-0.09,0.31s0.08,0.8,0.28,1c0.1,0.1,0.21,0.19,0.31,0.19c0,0,0.1,0.59,0.5,1.09c0.1,0.4-0.31,0.63-0.31,0.63
	c-1.4,0.3-2.69,1.08-2.69,1.88v0.63c0,0.9,2.1,1.08,4.1,0.88c1.9,0,4-0.49,4-1.09v-0.59c0-0.9-1.29-1.61-2.69-1.91
	c0,0-0.61-0.09-0.31-0.59c0.3-0.4,0.5-0.8,0.5-1c0,0,0.5-0.31,0.5-0.91c0-0.6-0.09-0.59-0.09-0.59c0.2-0.6,0.31-2.9-1.19-2.6
	C10.09,9.03,9.63,8.81,9.12,8.82z"/>

<rect fill="#00B894" x="15.43" y="10.82" class="st1" width="8.01" height="2"/>
<rect fill="#00B894"  x="15.43" y="14.82" class="st1" width="8.01" height="2"/>
</svg>
