<?xml version="1.0" encoding="utf-8"?>
<!-- Generator: Adobe Illustrator 27.1.1, SVG Export Plug-In . SVG Version: 6.00 Build 0)  -->
<svg version="1.1" id="Layer_1" xmlns="http://www.w3.org/2000/svg" xmlns:xlink="http://www.w3.org/1999/xlink" x="0px" y="0px"
	 viewBox="0 0 28.35 28.35" style="enable-background:new 0 0 28.35 28.35;" xml:space="preserve">
<style type="text/css">
	.st0{fill:#737395;}
	.st1{fill:#00B894;}
</style>
<path fill="#737395" d="M12.18,1.42c-5.8,0-10.49,2.19-10.49,4.9s4.7,4.9,10.49,4.9s10.49-2.19,10.49-4.9S17.98,1.42,12.18,1.42z
	 M1.69,7.62v3.78c0,2.71,4.7,4.9,10.49,4.9s10.49-2.19,10.49-4.9V7.62c0,2.71-4.7,4.9-10.49,4.9S1.69,10.33,1.69,7.62z M1.69,12.71
	v3.78c0,2.71,4.7,4.9,10.49,4.9c1.6,0,3.1-0.18,4.45-0.48c-0.27-0.38-0.41-0.82-0.41-1.3c0-0.61,0.24-1.2,0.67-1.62l1.27-1.24
	c-1.69,0.55-3.76,0.86-5.98,0.86C6.39,17.61,1.69,15.42,1.69,12.71z M22.68,12.71c0,1.25-1.01,2.38-2.67,3.24
	c0.56,0.03,1.1,0.27,1.49,0.67l0.92,0.92c0.16-0.34,0.25-0.69,0.25-1.05V12.71z M1.69,17.8v3.78c0,2.71,4.7,4.9,10.49,4.9
	c1.45,0,2.84-0.13,4.1-0.38c-0.04-0.16-0.06-0.34-0.06-0.51c0-0.61,0.24-1.2,0.67-1.62l1.37-1.37l-0.6-0.64
	c-1.59,0.45-3.47,0.73-5.47,0.73C6.39,22.7,1.69,20.51,1.69,17.8z"/>
<path fill="#00B894" d="M19.88,17.58c-0.17,0-0.32,0.06-0.45,0.19l-1.4,1.4c-0.25,0.25-0.25,0.64,0,0.89l2.54,2.54l-2.54,2.54
	c-0.25,0.25-0.25,0.64,0,0.89l1.4,1.4c0.25,0.25,0.64,0.25,0.89,0l2.54-2.54l2.54,2.54c0.25,0.25,0.64,0.25,0.89,0l1.4-1.4
	c0.25-0.25,0.25-0.64,0-0.89l-2.54-2.54l2.54-2.54c0.25-0.25,0.25-0.64,0-0.89l-1.4-1.4c-0.25-0.25-0.64-0.25-0.89,0l-2.54,2.54
	l-2.54-2.54C20.2,17.64,20.05,17.58,19.88,17.58z"/>
</svg>
