<svg version="1.1" id="Layer_1" xmlns="http://www.w3.org/2000/svg" xmlns:xlink="http://www.w3.org/1999/xlink" x="0px" y="0px"
    viewBox="0 0 28.35 28.35" style="enable-background:new 0 0 28.35 28.35;" xml:space="preserve">
<g>
	<path fill="#12B692" d="M24.42,12.74c-0.35,0-0.7,0.15-0.96,0.41l-0.59,0.59l3.93,3.93l0.59-0.59c0.53-0.53,0.54-1.42,0-1.96
		l-1.96-1.96C25.14,12.89,24.77,12.74,24.42,12.74z"/>
    <polygon fill="#12B692" points="22.21,14.29 21.28,15.19 25.35,19.25 26.31,18.39 "/>
    <path fill="#12B692" d="M20.66,15.84l-6.51,6.44c-0.09,0.07-0.17,0.15-0.21,0.28l-1.34,4.65c-0.06,0.21-0.01,0.43,0.14,0.59
		c0.11,0.11,0.26,0.17,0.41,0.17c0.06,0,0.09-0.02,0.14-0.03l4.68-1.34c0.11-0.03,0.17-0.12,0.24-0.21l6.54-6.48l-2.65-2.65
		L20.66,15.84z"/>
    <polygon fill="#FFFFFF" points="14.94,23.25 15.29,23.56 16.8,23.7 16.91,25.21 17.29,25.59 14.77,26.31 14.22,25.76 "/>
</g>
    <path fill="#737496" d="M12.65,0c-3.5,0-6.51,2.36-6.51,6.89c0,2.96,1.39,5.96,3.2,7.82c0.71,1.86-0.56,2.56-0.83,2.65
	c-3.66,1.33-7.96,3.75-7.96,6.13v0.9c0,3.06,5.6,3.87,11.13,3.96c-0.08-0.43-0.09-0.88,0.03-1.31l1.38-4.65
	c0.14-0.49,0.43-0.92,0.83-1.27l3.48-3.48c-0.28-0.1-0.55-0.19-0.83-0.28c-0.18-0.06-1.28-0.55-0.59-2.65
	c1.8-1.86,3.17-4.87,3.17-7.82C19.16,2.36,16.15,0,12.65,0z"/>
</svg>
