<svg xmlns="http://www.w3.org/2000/svg" viewBox="0 0 64 64"><linearGradient id="f7OW27mxieC1giDOyQvaaa" x1="32" x2="32" y1="5.999" y2="57.662" gradientUnits="userSpaceOnUse" spreadMethod="reflect"><stop offset="0" stop-color="#1a6dff"/><stop offset="1" stop-color="#c822ff"/></linearGradient><path fill="url(#f7OW27mxieC1giDOyQvaaa)" d="M54.969,27.676c0.625,0.379,1.375,0.391,2.012,0.031c0.629-0.355,1.02-1.027,1.02-1.75v-3.09 c0-1.047-0.559-2.035-1.453-2.574l-23-13.863c-0.953-0.574-2.141-0.574-3.094,0l-23,13.863C6.559,20.832,6,21.82,6,22.867v3.09 c0,0.723,0.391,1.395,1.02,1.75c0.309,0.172,0.645,0.262,0.984,0.262c0.352,0,0.707-0.098,1.027-0.293L10,27.094V52 c-1.102,0-2,0.898-2,2v2H6v2h52v-2h-2v-2c0-1.102-0.898-2-2-2V27.094L54.969,27.676z M54,56H10v-2h16h12h16V56z M12,48v-2h4v-2h-4 V25.891l19.488-11.746c0.316-0.191,0.707-0.191,1.023,0L52,25.891V44h-4v2h4v2h-6v2h6v2H38V39.014C38,37.352,36.647,36,34.985,36 h-5.971C27.353,36,26,37.352,26,39.014V52H12v-2h6v-2H12z M36,39.014V52h-8V39.014C28,38.455,28.455,38,29.015,38h5.971 C35.545,38,36,38.455,36,39.014z M33.547,12.43C33.07,12.145,32.535,12,32,12s-1.07,0.145-1.547,0.43L8,25.957v-3.09 c0-0.352,0.187-0.68,0.484-0.859L31.488,8.145c0.316-0.191,0.707-0.191,1.023,0l23.004,13.863C55.812,22.188,56,22.516,56,22.867 v3.098L33.547,12.43z"/><linearGradient id="f7OW27mxieC1giDOyQvaab" x1="33" x2="33" y1="5.979" y2="57.642" gradientUnits="userSpaceOnUse" spreadMethod="reflect"><stop offset="0" stop-color="#1a6dff"/><stop offset="1" stop-color="#c822ff"/></linearGradient><path fill="url(#f7OW27mxieC1giDOyQvaab)" d="M32 43H34V47H32z"/><linearGradient id="f7OW27mxieC1giDOyQvaac" x1="32" x2="32" y1="5.979" y2="57.642" gradientUnits="userSpaceOnUse" spreadMethod="reflect"><stop offset="0" stop-color="#1a6dff"/><stop offset="1" stop-color="#c822ff"/></linearGradient><path fill="url(#f7OW27mxieC1giDOyQvaac)" d="M26 32H38V34H26z"/><linearGradient id="f7OW27mxieC1giDOyQvaad" x1="32" x2="32" y1="600.417" y2="597.323" gradientTransform="matrix(1 0 0 -1 0 654)" gradientUnits="userSpaceOnUse" spreadMethod="reflect"><stop offset="0" stop-color="#6dc7ff"/><stop offset="1" stop-color="#e6abff"/></linearGradient><path fill="url(#f7OW27mxieC1giDOyQvaad)" d="M10,54h44v2H10V54z"/></svg>