<?xml version="1.0" encoding="utf-8"?>
<!-- Generator: Adobe Illustrator 27.1.1, SVG Export Plug-In . SVG Version: 6.00 Build 0)  -->
<svg version="1.1" id="Layer_1" xmlns="http://www.w3.org/2000/svg" xmlns:xlink="http://www.w3.org/1999/xlink" x="0px" y="0px"
	 viewBox="0 0 28.35 28.35" style="enable-background:new 0 0 28.35 28.35;" xml:space="preserve">
<style type="text/css">
	.st0{fill:#61615E;}
</style>
<path fill="#00B894" d="M14.3,10.06c-0.78,0-1.5,0.23-2.13,0.61c0.19-0.06,0.4-0.1,0.61-0.1c1.15,0,2.09,0.94,2.09,2.09
	c0,1.15-0.94,2.09-2.09,2.09s-2.09-0.94-2.09-2.09c0-0.22,0.04-0.41,0.1-0.61c-0.38,0.62-0.61,1.34-0.61,2.13
	c0,2.27,1.84,4.12,4.12,4.12c2.27,0,4.12-1.84,4.12-4.12S16.58,10.06,14.3,10.06z"/>
<path fill="#00B894" d="M21.87,3.37c-0.59,0-1.08,0.49-1.08,1.08v2.16c0,0.59,0.49,1.08,1.08,1.08h2.16c0.59,0,1.08-0.49,1.08-1.08
	V4.45c0-0.59-0.49-1.08-1.08-1.08H21.87z"/>
<path fill="#737395" d="M5.53,0.13c-2.91,0-5.27,2.36-5.27,5.27v17.55c0,2.91,2.36,5.27,5.27,5.27h17.55c2.91,0,5.27-2.36,5.27-5.27
	V5.4c0-2.91-2.36-5.27-5.27-5.27H5.53z M5.53,2.29h17.55c1.71,0,3.11,1.39,3.11,3.11v4.46h-4.42c-1.5-2.58-4.27-4.32-7.46-4.32
	S8.34,7.27,6.85,9.85H2.42V5.4C2.42,3.68,3.82,2.29,5.53,2.29z M14.3,7.69c1.92,0,3.64,0.84,4.83,2.16
	c0.01,0.01,0.03,0.02,0.03,0.03c0.05,0.05,0.09,0.11,0.14,0.17c0.13,0.16,0.25,0.33,0.37,0.51c0.05,0.07,0.09,0.13,0.14,0.2
	c0.17,0.28,0.34,0.57,0.47,0.88c0.03,0.05,0.05,0.11,0.07,0.17c0.05,0.14,0.09,0.3,0.14,0.44c0.04,0.12,0.07,0.25,0.1,0.37
	c0.02,0.08,0.05,0.16,0.07,0.24c0.01,0.03,0.03,0.07,0.03,0.1c0.03,0.18,0.05,0.36,0.07,0.54c0.03,0.22,0.03,0.44,0.03,0.68
	c0,1.34-0.41,2.58-1.11,3.61c-1.05,1.55-2.73,2.64-4.69,2.84c-0.22,0.02-0.45,0.03-0.68,0.03c-2.01,0-3.81-0.92-5-2.36
	c-0.13-0.16-0.25-0.33-0.37-0.51c-0.7-1.03-1.11-2.27-1.11-3.61c0-0.2,0.02-0.41,0.03-0.61c0-0.02,0-0.05,0-0.07
	c0-0.06,0.03-0.11,0.03-0.17c0.02-0.16,0.03-0.32,0.07-0.47c0.03-0.16,0.09-0.31,0.14-0.47c0.01-0.04,0.02-0.09,0.03-0.14
	c0.02-0.05,0.02-0.11,0.03-0.17c0.04-0.11,0.09-0.23,0.14-0.34c0.01-0.03,0.02-0.07,0.03-0.1c0.13-0.3,0.3-0.6,0.47-0.88
	c0.04-0.07,0.09-0.14,0.14-0.2c0.16-0.23,0.32-0.46,0.51-0.68c0.01-0.01,0.02-0.02,0.03-0.03C10.66,8.53,12.39,7.69,14.3,7.69z"/>
</svg>
