<?xml version="1.0" encoding="utf-8"?>
<!-- Generator: Adobe Illustrator 27.1.1, SVG Export Plug-In . SVG Version: 6.00 Build 0)  -->
<svg version="1.1" id="Layer_1" xmlns="http://www.w3.org/2000/svg" xmlns:xlink="http://www.w3.org/1999/xlink" x="0px" y="0px"
	 viewBox="0 0 28.35 28.35" style="enable-background:new 0 0 28.35 28.35;" xml:space="preserve">
<style type="text/css">
	.st0{fill:#61615E;}
</style>
<path fill="#737395" d="M14.54,0.15c-4.55,0-7.4,2.07-8.98,4.13C4.12,6.18,3.72,7.92,3.65,8.23L0.87,13.8l-0.01,0.03
	c-0.23,0.53-0.34,1.13-0.16,1.76c0.18,0.63,0.76,1.23,1.48,1.41c0.39,0.13,0.62,0.19,0.98,0.29v1.5c0,1.38,0.66,2.64,1.6,3.58
	c0.94,0.94,2.2,1.6,3.58,1.6v3.11h2.07V21.9H8.33c-0.69,0-1.5-0.38-2.12-0.99s-0.99-1.43-0.99-2.12v-3.07l-0.76-0.21
	c0,0-1.15-0.32-1.7-0.5L2.72,15L2.69,15c0-0.04-0.01-0.17,0.06-0.35c0,0,0,0,0,0l2.83-5.66l0.03-0.14c0,0,0.32-1.63,1.59-3.3
	c1.27-1.67,3.39-3.32,7.33-3.32c5.13,0,9.32,4.19,9.32,9.32c0,1.69-0.68,3.24-1.46,4.91s-1.65,3.44-1.65,5.55v5.07h2.07V22
	c0-1.52,0.68-3,1.46-4.68c0.78-1.68,1.65-3.54,1.65-5.78C25.93,5.28,20.8,0.15,14.54,0.15z"/>
<path fill="#00B894" d="M13.51,5.33v2.28c-0.38,0.09-0.73,0.2-1.05,0.38l-1.57-1.57L9.42,7.88L11,9.47c-0.19,0.34-0.33,0.67-0.42,1.04
	H8.33v2.07h2.25c0.09,0.37,0.24,0.71,0.42,1.04l-1.58,1.58l1.46,1.46l1.57-1.57c0.32,0.18,0.67,0.29,1.05,0.38v2.28h2.07v-2.28
	c0.38-0.09,0.73-0.2,1.05-0.38l1.57,1.57l1.46-1.46l-1.58-1.58c0.19-0.34,0.33-0.67,0.42-1.04h2.25v-2.07h-2.25
	c-0.09-0.37-0.24-0.71-0.42-1.04l1.58-1.58L18.2,6.42l-1.57,1.57c-0.32-0.18-0.67-0.29-1.05-0.38V5.33H13.51z M14.54,9.47
	c0.78,0,1.23,0.25,1.56,0.62c0.33,0.37,0.52,0.9,0.52,1.45s-0.19,1.08-0.52,1.45c-0.33,0.37-0.78,0.62-1.56,0.62
	s-1.23-0.25-1.56-0.62c-0.33-0.37-0.52-0.9-0.52-1.45s0.19-1.08,0.52-1.45C13.31,9.73,13.76,9.47,14.54,9.47z"/>
</svg>
