<svg xmlns="http://www.w3.org/2000/svg" x="0" y="0" viewBox="0 0 64 64"><linearGradient id="SVGID_1_" x1="49" x2="49" y1="4.447" y2="56.159" gradientUnits="userSpaceOnUse"><stop offset="0" stop-color="#1a6dff"/><stop offset="1" stop-color="#c822ff"/></linearGradient><path fill="url(#SVGID_1_)" d="M52.6,8h-7.2C43.5,8,42,9.5,42,11.4v7.2c0,1.9,1.5,3.4,3.4,3.4h7.2c1.9,0,3.4-1.5,3.4-3.4v-7.2 C56,9.5,54.5,8,52.6,8z M54,18.6c0,0.8-0.6,1.4-1.4,1.4h-7.2c-0.8,0-1.4-0.6-1.4-1.4v-7.2c0-0.8,0.6-1.4,1.4-1.4h7.2 c0.8,0,1.4,0.6,1.4,1.4V18.6z"/><linearGradient id="SVGID_2_" x1="32" x2="32" y1="4.447" y2="56.159" gradientUnits="userSpaceOnUse"><stop offset="0" stop-color="#1a6dff"/><stop offset="1" stop-color="#c822ff"/></linearGradient><path fill="url(#SVGID_2_)" d="M35.6,8h-7.2C26.5,8,25,9.5,25,11.4v7.2c0,1.9,1.5,3.4,3.4,3.4h7.2c1.9,0,3.4-1.5,3.4-3.4v-7.2 C39,9.5,37.5,8,35.6,8z M37,18.6c0,0.8-0.6,1.4-1.4,1.4h-7.2c-0.8,0-1.4-0.6-1.4-1.4v-7.2c0-0.8,0.6-1.4,1.4-1.4h7.2 c0.8,0,1.4,0.6,1.4,1.4V18.6z"/><linearGradient id="SVGID_3_" x1="15" x2="15" y1="4.447" y2="56.159" gradientUnits="userSpaceOnUse"><stop offset="0" stop-color="#1a6dff"/><stop offset="1" stop-color="#c822ff"/></linearGradient><path fill="url(#SVGID_3_)" d="M18.6,8h-7.2C9.5,8,8,9.5,8,11.4v7.2c0,1.9,1.5,3.4,3.4,3.4h7.2c1.9,0,3.4-1.5,3.4-3.4v-7.2 C22,9.5,20.5,8,18.6,8z M20,18.6c0,0.8-0.6,1.4-1.4,1.4h-7.2c-0.8,0-1.4-0.6-1.4-1.4v-7.2c0-0.8,0.6-1.4,1.4-1.4h7.2 c0.8,0,1.4,0.6,1.4,1.4V18.6z"/><linearGradient id="SVGID_4_" x1="32" x2="32" y1="4.447" y2="56.159" gradientUnits="userSpaceOnUse"><stop offset="0" stop-color="#1a6dff"/><stop offset="1" stop-color="#c822ff"/></linearGradient><path fill="url(#SVGID_4_)" d="M35.6,25h-7.2c-1.9,0-3.4,1.5-3.4,3.4v7.2c0,1.9,1.5,3.4,3.4,3.4h7.2c1.9,0,3.4-1.5,3.4-3.4v-7.2 C39,26.5,37.5,25,35.6,25z M37,35.6c0,0.8-0.6,1.4-1.4,1.4h-7.2c-0.8,0-1.4-0.6-1.4-1.4v-7.2c0-0.8,0.6-1.4,1.4-1.4h7.2 c0.8,0,1.4,0.6,1.4,1.4V35.6z"/><linearGradient id="SVGID_5_" x1="15" x2="15" y1="4.447" y2="56.159" gradientUnits="userSpaceOnUse"><stop offset="0" stop-color="#1a6dff"/><stop offset="1" stop-color="#c822ff"/></linearGradient><path fill="url(#SVGID_5_)" d="M18.6,25h-7.2C9.5,25,8,26.5,8,28.4v7.2c0,1.9,1.5,3.4,3.4,3.4h7.2c1.9,0,3.4-1.5,3.4-3.4v-7.2 C22,26.5,20.5,25,18.6,25z M20,35.6c0,0.8-0.6,1.4-1.4,1.4h-7.2c-0.8,0-1.4-0.6-1.4-1.4v-7.2c0-0.8,0.6-1.4,1.4-1.4h7.2 c0.8,0,1.4,0.6,1.4,1.4V35.6z"/><linearGradient id="SVGID_6_" x1="49" x2="49" y1="4.447" y2="56.159" gradientUnits="userSpaceOnUse"><stop offset="0" stop-color="#1a6dff"/><stop offset="1" stop-color="#c822ff"/></linearGradient><path fill="url(#SVGID_6_)" d="M52.6,25h-7.2c-1.9,0-3.4,1.5-3.4,3.4v7.2c0,1.9,1.5,3.4,3.4,3.4h7.2c1.9,0,3.4-1.5,3.4-3.4v-7.2 C56,26.5,54.5,25,52.6,25z M54,35.6c0,0.8-0.6,1.4-1.4,1.4h-7.2c-0.8,0-1.4-0.6-1.4-1.4v-7.2c0-0.8,0.6-1.4,1.4-1.4h7.2 c0.8,0,1.4,0.6,1.4,1.4V35.6z"/><linearGradient id="SVGID_7_" x1="32" x2="32" y1="4.447" y2="56.159" gradientUnits="userSpaceOnUse"><stop offset="0" stop-color="#1a6dff"/><stop offset="1" stop-color="#c822ff"/></linearGradient><path fill="url(#SVGID_7_)" d="M35.6,42h-7.2c-1.9,0-3.4,1.5-3.4,3.4v7.2c0,1.9,1.5,3.4,3.4,3.4h7.2c1.9,0,3.4-1.5,3.4-3.4v-7.2 C39,43.5,37.5,42,35.6,42z M37,52.6c0,0.8-0.6,1.4-1.4,1.4h-7.2c-0.8,0-1.4-0.6-1.4-1.4v-7.2c0-0.8,0.6-1.4,1.4-1.4h7.2 c0.8,0,1.4,0.6,1.4,1.4V52.6z"/><linearGradient id="SVGID_8_" x1="15" x2="15" y1="4.447" y2="56.159" gradientUnits="userSpaceOnUse"><stop offset="0" stop-color="#1a6dff"/><stop offset="1" stop-color="#c822ff"/></linearGradient><path fill="url(#SVGID_8_)" d="M18.6,42h-7.2C9.5,42,8,43.5,8,45.4v7.2c0,1.9,1.5,3.4,3.4,3.4h7.2c1.9,0,3.4-1.5,3.4-3.4v-7.2 C22,43.5,20.5,42,18.6,42z M20,52.6c0,0.8-0.6,1.4-1.4,1.4h-7.2c-0.8,0-1.4-0.6-1.4-1.4v-7.2c0-0.8,0.6-1.4,1.4-1.4h7.2 c0.8,0,1.4,0.6,1.4,1.4V52.6z"/><linearGradient id="SVGID_9_" x1="49" x2="49" y1="4.447" y2="56.159" gradientUnits="userSpaceOnUse"><stop offset="0" stop-color="#1a6dff"/><stop offset="1" stop-color="#c822ff"/></linearGradient><path fill="url(#SVGID_9_)" d="M52.6,42h-7.2c-1.9,0-3.4,1.5-3.4,3.4v7.2c0,1.9,1.5,3.4,3.4,3.4h7.2c1.9,0,3.4-1.5,3.4-3.4v-7.2 C56,43.5,54.5,42,52.6,42z M54,52.6c0,0.8-0.6,1.4-1.4,1.4h-7.2c-0.8,0-1.4-0.6-1.4-1.4v-7.2c0-0.8,0.6-1.4,1.4-1.4h7.2 c0.8,0,1.4,0.6,1.4,1.4V52.6z"/><g><linearGradient id="SVGID_10_" x1="15" x2="15" y1="11.383" y2="18.175" gradientUnits="userSpaceOnUse"><stop offset="0" stop-color="#6dc7ff"/><stop offset="1" stop-color="#e6abff"/></linearGradient><path fill="url(#SVGID_10_)" d="M17.5,18h-5c-0.3,0-0.5-0.2-0.5-0.5v-5c0-0.3,0.2-0.5,0.5-0.5h5c0.3,0,0.5,0.2,0.5,0.5v5 C18,17.8,17.8,18,17.5,18z"/></g><g><linearGradient id="SVGID_11_" x1="32" x2="32" y1="11.383" y2="18.175" gradientUnits="userSpaceOnUse"><stop offset="0" stop-color="#6dc7ff"/><stop offset="1" stop-color="#e6abff"/></linearGradient><path fill="url(#SVGID_11_)" d="M34.5,18h-5c-0.3,0-0.5-0.2-0.5-0.5v-5c0-0.3,0.2-0.5,0.5-0.5h5c0.3,0,0.5,0.2,0.5,0.5v5 C35,17.8,34.8,18,34.5,18z"/></g><g><linearGradient id="SVGID_12_" x1="49" x2="49" y1="11.383" y2="18.175" gradientUnits="userSpaceOnUse"><stop offset="0" stop-color="#6dc7ff"/><stop offset="1" stop-color="#e6abff"/></linearGradient><path fill="url(#SVGID_12_)" d="M51.5,18h-5c-0.3,0-0.5-0.2-0.5-0.5v-5c0-0.3,0.2-0.5,0.5-0.5h5c0.3,0,0.5,0.2,0.5,0.5v5 C52,17.8,51.8,18,51.5,18z"/></g><g><linearGradient id="SVGID_13_" x1="15" x2="15" y1="28.192" y2="34.899" gradientUnits="userSpaceOnUse"><stop offset="0" stop-color="#6dc7ff"/><stop offset="1" stop-color="#e6abff"/></linearGradient><path fill="url(#SVGID_13_)" d="M17.5,29h-5c-0.3,0-0.5,0.2-0.5,0.5v5c0,0.3,0.2,0.5,0.5,0.5h5c0.3,0,0.5-0.2,0.5-0.5v-5 C18,29.2,17.8,29,17.5,29z"/><linearGradient id="SVGID_14_" x1="32" x2="32" y1="28.192" y2="34.899" gradientUnits="userSpaceOnUse"><stop offset="0" stop-color="#6dc7ff"/><stop offset="1" stop-color="#e6abff"/></linearGradient><path fill="url(#SVGID_14_)" d="M34.5,29h-5c-0.3,0-0.5,0.2-0.5,0.5v5c0,0.3,0.2,0.5,0.5,0.5h5c0.3,0,0.5-0.2,0.5-0.5v-5 C35,29.2,34.8,29,34.5,29z"/><linearGradient id="SVGID_15_" x1="49" x2="49" y1="28.192" y2="34.899" gradientUnits="userSpaceOnUse"><stop offset="0" stop-color="#6dc7ff"/><stop offset="1" stop-color="#e6abff"/></linearGradient><path fill="url(#SVGID_15_)" d="M51.5,29h-5c-0.3,0-0.5,0.2-0.5,0.5v5c0,0.3,0.2,0.5,0.5,0.5h5c0.3,0,0.5-0.2,0.5-0.5v-5 C52,29.2,51.8,29,51.5,29z"/></g><g><linearGradient id="SVGID_16_" x1="15" x2="15" y1="45.809" y2="52.332" gradientUnits="userSpaceOnUse"><stop offset="0" stop-color="#6dc7ff"/><stop offset="1" stop-color="#e6abff"/></linearGradient><path fill="url(#SVGID_16_)" d="M17.5,46h-5c-0.3,0-0.5,0.2-0.5,0.5v5c0,0.3,0.2,0.5,0.5,0.5h5c0.3,0,0.5-0.2,0.5-0.5v-5 C18,46.2,17.8,46,17.5,46z"/><linearGradient id="SVGID_17_" x1="32" x2="32" y1="45.809" y2="52.332" gradientUnits="userSpaceOnUse"><stop offset="0" stop-color="#6dc7ff"/><stop offset="1" stop-color="#e6abff"/></linearGradient><path fill="url(#SVGID_17_)" d="M34.5,46h-5c-0.3,0-0.5,0.2-0.5,0.5v5c0,0.3,0.2,0.5,0.5,0.5h5c0.3,0,0.5-0.2,0.5-0.5v-5 C35,46.2,34.8,46,34.5,46z"/><linearGradient id="SVGID_18_" x1="49" x2="49" y1="45.809" y2="52.332" gradientUnits="userSpaceOnUse"><stop offset="0" stop-color="#6dc7ff"/><stop offset="1" stop-color="#e6abff"/></linearGradient><path fill="url(#SVGID_18_)" d="M51.5,46h-5c-0.3,0-0.5,0.2-0.5,0.5v5c0,0.3,0.2,0.5,0.5,0.5h5c0.3,0,0.5-0.2,0.5-0.5v-5 C52,46.2,51.8,46,51.5,46z"/></g></svg>