<?xml version="1.0" encoding="utf-8"?>
<!-- Generator: Adobe Illustrator 27.1.1, SVG Export Plug-In . SVG Version: 6.00 Build 0)  -->
<svg version="1.1" id="Layer_1" xmlns="http://www.w3.org/2000/svg" xmlns:xlink="http://www.w3.org/1999/xlink" x="0px" y="0px"
	viewBox="0 0 28.35 28.35" style="enable-background:new 0 0 28.35 28.35;" xml:space="preserve">
<style type="text/css">
	.st0{fill:#737395;}
	.st1{fill:#00B894;}
	.st2{fill:#FFFFFF;}
</style>
	<path fill="#737395" d="M0.92,14.17c0-7.32,5.93-13.25,13.25-13.25s13.25,5.93,13.25,13.25s-5.93,13.25-13.25,13.25
	S0.92,21.49,0.92,14.17z"/>
	<path fill="#00B894"   d="M14.15,4.54l1.26,2.54l2.8,0.41l-2.03,1.98l0.48,2.79l-2.52-1.32l-2.51,1.32l0.48-2.79l-2.03-1.98l2.8-0.41
	L14.15,4.54z M19.97,12.97l1.26,2.54l2.81,0.41l-2.03,1.98l0.48,2.79l-2.51-1.32l-2.51,1.32l0.48-2.79l-2.03-1.98l2.8-0.41
	L19.97,12.97z M8.33,12.97l1.26,2.54l2.8,0.41l-2.03,1.98l0.48,2.79l-2.51-1.32L5.82,20.7L6.3,17.9l-2.03-1.98l2.81-0.41L8.33,12.97
	z"/>
	<polygon fill="#ffffff"  points="19.97,12.97 21.23,15.52 24.04,15.92 22.01,17.9 22.48,20.7 19.97,19.38 17.46,20.7 17.94,17.9
	15.91,15.92 18.72,15.52 "/>
</svg>
