<svg version="1.0" xmlns="http://www.w3.org/2000/svg" xmlns:xlink="http://www.w3.org/1999/xlink" x="0px" y="0px" viewBox="0 0 28.35 28.35" xml:space="preserve">
    <path fill="#737395" d="M12.11,1.76c-2.92,0-5.26,2-5.26,5.84c0,2.5,1,5.05,2.51,6.62c0.59,1.57-0.47,2.15-0.7,2.24
        c-3.05,1.12-6.62,3.15-6.62,5.17v0.76c0,2.75,5.24,3.39,10.1,3.39c1.07,0,2.14-0.05,3.18-0.12c-1.28-1.35-2.06-3.16-2.06-5.17
        c0-1.73,0.59-3.32,1.57-4.6c-0.15-0.34-0.2-0.88,0.06-1.69c1.5-1.57,2.48-4.1,2.48-6.59C17.38,3.76,15.03,1.76,12.11,1.76z"/>
	<circle fill="#00B894" cx="20.28" cy="20.75" r="6.11"/>
	<rect fill="#FFFFFF" x="16.89" y="19.87" width="6.74" height="1.75"/>
</svg>
