<?xml version="1.0" encoding="utf-8"?>
<!-- Generator: Adobe Illustrator 27.1.1, SVG Export Plug-In . SVG Version: 6.00 Build 0)  -->
<svg version="1.1" id="Layer_1" xmlns="http://www.w3.org/2000/svg" xmlns:xlink="http://www.w3.org/1999/xlink" x="0px" y="0px"
	 viewBox="0 0 28.35 28.35" style="enable-background:new 0 0 28.35 28.35;" xml:space="preserve">
<g>
	<g>
		<path d="M2.31,13.7c-0.18,0.41-0.33,0.82-0.45,1.22c-0.12,0.41-0.18,0.8-0.19,1.16c0,0.53,0.11,0.98,0.32,1.36
			s0.52,0.66,0.93,0.86c0.41,0.2,0.9,0.3,1.48,0.3c0.67,0,1.23-0.13,1.69-0.38c0.45-0.25,0.79-0.57,1-0.95
			c0.22-0.38,0.32-0.78,0.32-1.19c0-0.34-0.04-0.71-0.13-1.12c-0.09-0.41-0.2-0.88-0.35-1.4l-0.16-0.53l0.71-0.31
			c0.22,0.77,0.39,1.41,0.5,1.91c0.11,0.51,0.16,0.99,0.16,1.45c0,0.54-0.14,1.07-0.43,1.59C7.42,18.19,7,18.61,6.43,18.95
			s-1.24,0.5-2.03,0.5c-0.78,0-1.43-0.16-1.96-0.48c-0.53-0.32-0.92-0.74-1.16-1.25c-0.25-0.52-0.36-1.06-0.35-1.63
			c0.01-0.46,0.09-0.95,0.25-1.45s0.33-0.95,0.53-1.35l0.65,0.31L2.31,13.7z M4.27,13.35c-0.08-0.08-0.21-0.21-0.38-0.38
			c0.14-0.14,0.27-0.26,0.38-0.38c0.11-0.12,0.24-0.24,0.37-0.38c0.14,0.14,0.26,0.26,0.38,0.38c0.12,0.12,0.24,0.24,0.38,0.38
			c-0.17,0.18-0.29,0.31-0.38,0.39s-0.21,0.21-0.38,0.37C4.48,13.56,4.36,13.44,4.27,13.35z"/>
		<path d="M10.4,10.82c0.04,1.26,0.05,2.21,0.04,2.86c-0.02,0.54,0,0.95,0.05,1.21c0.05,0.26,0.17,0.45,0.37,0.58
			c0.2,0.12,0.51,0.19,0.94,0.19h0.06l0.05,0.42l-0.05,0.42h-0.06c-0.58,0-1.03-0.1-1.34-0.29c-0.31-0.19-0.52-0.48-0.64-0.87
			c-0.12-0.39-0.16-0.91-0.14-1.58c0.01-0.72-0.01-1.68-0.04-2.87c-0.04-1.2-0.09-2-0.15-2.41l0.76-0.16
			C10.31,8.73,10.36,9.56,10.4,10.82z"/>
		<path d="M15.57,15.56c0.45,0.18,0.76,0.23,0.94,0.14c0.28-0.14,0.44-0.43,0.47-0.87s-0.06-0.86-0.28-1.24
			c-0.22-0.38-0.5-0.57-0.85-0.57c-0.25,0-0.5,0.15-0.75,0.46c-0.25,0.3-0.53,0.75-0.83,1.33l-0.17,0.3
			c-0.23,0.45-0.53,0.79-0.9,1.03c-0.37,0.24-0.78,0.35-1.25,0.35h-0.22l0.01-0.84h0.23c0.34,0,0.65-0.09,0.93-0.28
			c0.28-0.19,0.52-0.46,0.7-0.82l0.13-0.24c0.21-0.42,0.41-0.77,0.61-1.06c0.2-0.29,0.42-0.53,0.67-0.71
			c0.25-0.19,0.51-0.29,0.78-0.31c0.6-0.02,1.08,0.26,1.44,0.84s0.5,1.23,0.42,1.93s-0.38,1.18-0.91,1.45
			c-0.57,0.3-1.6-0.06-3.11-1.07l0.35-0.7C14.59,15.09,15.12,15.38,15.57,15.56z"/>
		<path d="M20.66,18.46c0.55-0.28,0.97-0.61,1.24-1c0.28-0.39,0.41-0.83,0.41-1.33c0-0.46-0.06-0.94-0.19-1.43
			c-0.12-0.49-0.31-0.9-0.55-1.22s-0.54-0.5-0.88-0.52c-0.23-0.02-0.46,0.11-0.67,0.37c-0.22,0.26-0.36,0.56-0.44,0.91
			s-0.05,0.62,0.09,0.84c0.16,0.26,0.53,0.43,1.1,0.49c0.58,0.06,1.3,0.09,2.18,0.08h0.46l0.05,0.42l-0.05,0.42
			c-0.26,0-0.46,0-0.62,0.01c-0.69,0.01-1.25,0-1.69-0.03c-0.44-0.03-0.85-0.11-1.23-0.25c-0.38-0.14-0.65-0.37-0.81-0.68
			c-0.2-0.39-0.24-0.86-0.13-1.4c0.11-0.54,0.34-1.02,0.67-1.42c0.34-0.4,0.71-0.6,1.12-0.6c0.46,0,0.87,0.21,1.21,0.62
			c0.34,0.42,0.61,0.93,0.79,1.54c0.18,0.61,0.27,1.21,0.27,1.78c0,0.64-0.16,1.22-0.49,1.73c-0.33,0.51-0.81,0.95-1.43,1.31
			c-0.63,0.36-1.38,0.63-2.26,0.8l-0.23-0.76C19.41,18.97,20.11,18.74,20.66,18.46z"/>
		<path d="M23.26,15.65h0.44c0.88,0,1.51-0.09,1.89-0.28c0.38-0.19,0.57-0.49,0.56-0.89c-0.01-0.27-0.09-0.66-0.23-1.15
			c-0.15-0.5-0.29-0.87-0.41-1.13l0.68-0.36c0.16,0.34,0.32,0.77,0.48,1.3c0.16,0.53,0.24,0.98,0.23,1.36
			c-0.01,0.66-0.27,1.16-0.78,1.5s-1.29,0.5-2.33,0.5h-0.53V15.65z M24.03,9.91c0.11-0.11,0.23-0.23,0.37-0.37
			c0.16,0.17,0.28,0.29,0.36,0.37c0.08,0.08,0.2,0.2,0.36,0.36c-0.17,0.16-0.29,0.28-0.37,0.37s-0.19,0.2-0.35,0.35
			c-0.17-0.16-0.29-0.28-0.37-0.37c-0.08-0.08-0.2-0.2-0.35-0.35C23.8,10.14,23.92,10.02,24.03,9.91z M26,9.91
			c0.11-0.11,0.23-0.23,0.37-0.37c0.16,0.17,0.28,0.29,0.36,0.37c0.08,0.08,0.2,0.2,0.36,0.36c-0.17,0.16-0.29,0.28-0.37,0.37
			c-0.08,0.08-0.19,0.2-0.35,0.35c-0.17-0.16-0.29-0.28-0.37-0.37s-0.2-0.2-0.35-0.35C25.78,10.14,25.9,10.02,26,9.91z"/>
		<path d="M1.82,47.29c0.42-0.29,0.75-0.61,0.99-0.95s0.37-0.67,0.37-0.98c0-0.24-0.06-0.65-0.18-1.22
			c-0.12-0.57-0.26-1.18-0.43-1.83l0.73-0.26c0.18,0.59,0.32,1.2,0.44,1.82c0.12,0.62,0.17,1.12,0.17,1.49
			c0,0.46-0.14,0.91-0.42,1.35c-0.28,0.44-0.66,0.84-1.15,1.19c-0.48,0.35-1.02,0.62-1.61,0.82l-0.3-0.74
			C0.94,47.81,1.4,47.58,1.82,47.29z"/>
		<path d="M5.78,47.29c0.42-0.29,0.75-0.61,0.99-0.95s0.37-0.67,0.37-0.98c0-0.24-0.06-0.65-0.18-1.22
			c-0.12-0.57-0.26-1.18-0.43-1.83l0.73-0.26c0.18,0.59,0.32,1.2,0.44,1.82c0.12,0.62,0.17,1.12,0.17,1.49
			c0,0.46-0.14,0.91-0.42,1.35c-0.28,0.44-0.66,0.84-1.15,1.19c-0.48,0.35-1.02,0.62-1.61,0.82l-0.3-0.74
			C4.9,47.81,5.36,47.58,5.78,47.29z"/>
	</g>
</g>
</svg>
